<?xml version="1.0" encoding="UTF-8"?>
<svg width="40px" height="40px" viewBox="0 0 40 40" version="1.1" xmlns="http://www.w3.org/2000/svg" xmlns:xlink="http://www.w3.org/1999/xlink">
    <!-- Generator: Sketch 52.6 (67491) - http://www.bohemiancoding.com/sketch -->
    <title>Shape</title>
    <desc>Created with Sketch.</desc>
    <g id="Page-1" stroke="none" stroke-width="1" fill="none" fill-rule="evenodd">
        <g id="Free-Sketch-Template" transform="translate(-153.000000, -2348.000000)" fill="#C71222">
            <g id="//-SERVICES" transform="translate(-98.000000, 1974.000000)">
                <g id="1" transform="translate(250.000000, 374.000000)">
                    <g id="wallet" transform="translate(1.000000, 0.000000)">
                        <path d="M38.7390625,8.3375 L33.328125,8.3375 L33.328125,3.765625 C33.328125,1.690625 31.646875,0.0078125 29.5703125,0.0078125 L3.7671875,0.0078125 C1.6921875,0.0078125 0.009375,1.690625 0.009375,3.765625 L0.009375,38.7390625 C0.009375,39.43125 0.5703125,39.9921875 1.2625,39.9921875 L38.740625,39.9921875 C39.4328125,39.9921875 39.99375,39.43125 39.99375,38.7390625 L39.99375,9.590625 C39.99375,8.8984375 39.4328125,8.3375 38.740625,8.3375 L38.7390625,8.3375 Z M3.765625,1.6734375 L29.56875,1.6734375 C30.721875,1.6734375 31.6609375,2.6125 31.6609375,3.765625 L31.6609375,8.3375 L1.6734375,8.3375 L1.6734375,3.765625 C1.6734375,2.6125 2.6125,1.6734375 3.765625,1.6734375 L3.765625,1.6734375 Z M38.3265625,38.3265625 L1.675,38.3265625 L1.675,10.0046875 L38.3265625,10.0046875 L38.3265625,38.3265625 L38.3265625,38.3265625 Z" id="Shape"></path>
                    </g>
                </g>
            </g>
        </g>
    </g>
</svg>