<?xml version="1.0" encoding="UTF-8"?>
<svg width="41px" height="36px" viewBox="0 0 41 36" version="1.1" xmlns="http://www.w3.org/2000/svg" xmlns:xlink="http://www.w3.org/1999/xlink">
    <!-- Generator: Sketch 52.6 (67491) - http://www.bohemiancoding.com/sketch -->
    <title>Shape</title>
    <desc>Created with Sketch.</desc>
    <g id="Page-1" stroke="none" stroke-width="1" fill="none" fill-rule="evenodd">
        <g id="Free-Sketch-Template" transform="translate(-933.000000, -2352.000000)" fill="#C71222">
            <g id="//-SERVICES" transform="translate(-98.000000, 1974.000000)">
                <g id="3" transform="translate(1030.000000, 378.000000)">
                    <g id="Hearth" transform="translate(1.000000, 0.000000)">
                        <path d="M29.008533,1.60548885 C34.2921465,1.60548885 38.5763601,5.90536753 38.5763601,11.2083002 C38.5763601,13.9328118 37.4449076,16.3877338 35.6291813,18.1363009 L20.1775006,33.7227963 L4.44520768,17.8546626 C2.79454742,16.1286868 1.77714046,13.7897335 1.77714046,11.2083002 C1.77714046,5.90386144 6.06135414,1.60548885 11.3449676,1.60548885 C15.3245594,1.60548885 18.7354238,4.04534996 20.1775006,7.51537464 C21.6195774,4.04534996 25.0304418,1.60548885 29.0100336,1.60548885 L29.008533,1.60548885 Z M29.008533,1.19958151e-14 C25.4896255,1.19958151e-14 22.2573325,1.64012885 20.176,4.3435552 C18.0961681,1.64012885 14.8638752,1.0658141e-14 11.343467,1.0658141e-14 C5.1850036,1.0658141e-14 0.176,5.02882483 0.176,11.2083002 C0.176,14.1120361 1.28194238,16.8681755 3.2897455,18.967661 L20.176,36 L36.7621345,19.2703845 C38.9530108,17.1588504 40.176,14.2882483 40.176,11.2098063 C40.176,5.02882483 35.1654958,0.0015060871 29.008533,0.0015060871 L29.008533,0.0015060871 L29.008533,1.19958151e-14 Z" id="Shape"></path>
                    </g>
                </g>
            </g>
        </g>
    </g>
</svg>