<?xml version="1.0" encoding="UTF-8"?>
<svg width="40px" height="38px" viewBox="0 0 40 38" version="1.1" xmlns="http://www.w3.org/2000/svg" xmlns:xlink="http://www.w3.org/1999/xlink">
    <!-- Generator: Sketch 52.6 (67491) - http://www.bohemiancoding.com/sketch -->
    <title>Joystick</title>
    <desc>Created with Sketch.</desc>
    <g id="Page-1" stroke="none" stroke-width="1" fill="none" fill-rule="evenodd">
        <g id="Free-Sketch-Template" transform="translate(-543.000000, -2598.000000)" fill="#C71222">
            <g id="//-SERVICES" transform="translate(-98.000000, 1974.000000)">
                <g id="5" transform="translate(640.000000, 624.000000)">
                    <g id="Joystick" transform="translate(1.000000, 0.000000)">
                        <path d="M29.5916583,14.5508536 C26.867757,14.5508536 24.0228237,17.0097712 20.6856027,17.3589103 L20.6856027,15.9379005 C20.7046414,12.4478678 23.3224697,8.85051217 27.6973026,8.85051217 L28.5268482,8.85051217 C32.552184,8.85051217 36.6903925,5.66750454 37.1323635,0.3 L35.7044572,0.3 C35.2774452,4.77767526 31.8545498,7.42542681 28.5268482,7.42542681 L27.6973026,7.42542681 C22.5214822,7.42542681 19.3080131,11.8012132 19.2617761,15.8876353 L19.2590563,15.8876353 L19.2590563,15.941976 C19.2590563,15.9528442 19.2576964,15.9650708 19.2576964,15.9772975 L19.2590563,15.9772975 L19.2590563,17.3602688 C15.9218353,17.0111297 13.0769019,14.5522121 10.3543606,14.5522121 C7.42239297,14.5522121 0,20.3625935 0,31.7510498 C0,37.5179586 3.89614435,37.7 4.39251178,37.7 L4.44418839,37.7 C6.86346965,37.7 9.09780304,36.5384671 11.8896998,33.7480712 C14.6815966,30.9576753 15.7980834,30.2267926 17.8216306,30.2267926 L19.9158932,30.2267926 L20.0314856,30.2267926 L22.1257482,30.2267926 C24.1506553,30.2267926 25.2657822,30.9590338 28.057679,33.7480712 C30.8495758,36.5371086 33.0825492,37.7 35.5031904,37.7 L35.554867,37.7 C36.0498745,37.7 39.9460189,37.5179586 39.9460189,31.7510498 C39.9460189,20.3625935 32.5249858,14.5522121 29.5930182,14.5522121 L29.5916583,14.5508536 Z M34.8678051,35.5 L34.8341609,35.4986749 L34.8005167,35.4986749 C32.7899402,35.4986749 30.8856792,34.4677286 28.4309994,32.0520278 C25.7192781,29.3819034 24.2497,28.2104939 21.5622025,28.2104939 L17.3041943,28.2104939 C14.6166967,28.2104939 13.1471187,29.3819034 10.4353973,32.0520278 C7.98071753,34.4677286 6.07645661,35.4986749 4.06588007,35.4986749 L4.0685716,35.4946995 L4.0147409,35.4986749 C3.32570798,35.4986749 1.07962213,35.1806452 1.07962213,31.0860126 C1.07962213,20.4717708 8.10049083,15.7 9.91458533,15.7 C10.9804331,15.7 12.2441088,16.2592022 13.5831474,16.8515326 C15.2909262,17.6068532 17.2261398,18.4628831 19.4453103,18.4801098 C21.640257,18.4628831 23.5754705,17.605528 25.2845952,16.8515326 C26.6236338,16.2592022 27.8873094,15.7 28.9531572,15.7 C30.7645602,15.7 37.7867746,20.4717708 37.7867746,31.0860126 C37.7867746,35.1819703 35.5406888,35.4986749 34.8678051,35.5 L34.8678051,35.5 Z" id="Shape"></path>
                        <polygon id="Shape" points="12.0917679 20.1 10.5802969 20.1 10.5802969 23.18 7.55735493 23.18 7.55735493 24.72 10.5802969 24.72 10.5802969 27.8 12.0917679 27.8 12.0917679 24.72 15.1147099 24.72 15.1147099 23.18 12.0917679 23.18"></polygon>
                        <path d="M26.9912394,21.2 C25.7987493,21.2 24.831309,22.1839898 24.831309,23.4 C24.831309,24.6146125 25.7987493,25.6 26.9912394,25.6 C28.1837296,25.6 29.1497976,24.6146125 29.1497976,23.4 C29.1497976,22.1839898 28.1837296,21.2 26.9912394,21.2 L26.9912394,21.2 Z M26.4507422,23.4 C26.153022,23.4 25.9109312,23.1525262 25.9109312,22.8505243 C25.9109312,22.5464252 26.1540522,22.3 26.4507422,22.3 C26.7474323,22.3 26.9905533,22.5464252 26.9905533,22.8505243 C26.9905533,23.1535748 26.7484625,23.4 26.4507422,23.4 L26.4507422,23.4 Z" id="Shape"></path>
                        <path d="M32.3893501,23.4 C31.1968599,23.4 30.2294197,24.3839898 30.2294197,25.6 C30.2294197,26.8160102 31.1968599,27.8 32.3893501,27.8 C33.5832125,27.8 34.5479082,26.8146125 34.5479082,25.6 C34.5479082,24.3839898 33.5818403,23.4 32.3893501,23.4 L32.3893501,23.4 Z M31.8493675,25.6 C31.5519311,25.6 31.3090418,25.3525262 31.3090418,25.0494757 C31.3090418,24.7464252 31.5519311,24.5 31.8493675,24.5 C32.1478331,24.5 32.388664,24.7464252 32.388664,25.0494757 C32.388664,25.3525262 32.1478331,25.6 31.8493675,25.6 L31.8493675,25.6 Z" id="Shape"></path>
                    </g>
                </g>
            </g>
        </g>
    </g>
</svg>