<?xml version="1.0" encoding="UTF-8"?>
<svg width="22px" height="36px" viewBox="0 0 22 36" version="1.1" xmlns="http://www.w3.org/2000/svg" xmlns:xlink="http://www.w3.org/1999/xlink">
    <!-- Generator: Sketch 52.6 (67491) - http://www.bohemiancoding.com/sketch -->
    <title>Phone</title>
    <desc>Created with Sketch.</desc>
    <g id="Page-1" stroke="none" stroke-width="1" fill="none" fill-rule="evenodd">
        <g id="Free-Sketch-Template" transform="translate(-933.000000, -2599.000000)">
            <g id="//-SERVICES" transform="translate(-98.000000, 1974.000000)">
                <g id="6" transform="translate(1022.000000, 43.000000)">
                    <g id="Phone">
                        <path d="M28.8575,582.0075 L11.14125,582.0075 C10.145,582.0075 9.33625,582.81625 9.33625,583.8125 L9.33625,616.18875 C9.33625,617.18625 10.145,617.99375 11.14125,617.99375 L28.8575,617.99375 C29.85375,617.99375 30.6625,617.18625 30.6625,616.18875 L30.6625,583.8125 C30.6625,582.81625 29.85375,582.0075 28.8575,582.0075 L28.8575,582.0075 Z M29.33,616.18875 C29.33,616.44875 29.11875,616.66 28.85875,616.66 L11.1425,616.66 C10.8825,616.66 10.67125,616.44875 10.67125,616.18875 L10.67125,610.00125 L29.33125,610.00125 L29.33125,616.18875 L29.33,616.18875 Z M29.33,608.6675 L10.67,608.6675 L10.67,587.365 L29.33,587.365 L29.33,608.6675 L29.33,608.6675 Z M29.33,586.0325 L10.67,586.0325 L10.67,583.8125 C10.67,583.5525 10.88125,583.34 11.14125,583.34 L28.8575,583.34 C29.1175,583.34 29.32875,583.5525 29.32875,583.8125 L29.32875,586.0325 L29.33,586.0325 Z" id="Shape" fill="#C71222"></path>
                        <polygon id="Shape" fill="#EE1A21" points="18.00125 612.66125 22 612.66125 22 613.99375 18.00125 613.99375 18.00125 612.66125"></polygon>
                    </g>
                </g>
            </g>
        </g>
    </g>
</svg>