<?xml version="1.0" encoding="UTF-8"?>
<svg width="29px" height="40px" viewBox="0 0 29 40" version="1.1" xmlns="http://www.w3.org/2000/svg" xmlns:xlink="http://www.w3.org/1999/xlink">
    <!-- Generator: Sketch 52.6 (67491) - http://www.bohemiancoding.com/sketch -->
    <title>Rocket</title>
    <desc>Created with Sketch.</desc>
    <g id="Page-1" stroke="none" stroke-width="1" fill="none" fill-rule="evenodd">
        <g id="Free-Sketch-Template" transform="translate(-153.000000, -2596.000000)" fill="#C71222">
            <g id="//-SERVICES" transform="translate(-98.000000, 1974.000000)">
                <g id="4" transform="translate(250.000000, 42.000000)">
                    <g id="Rocket" transform="translate(1.000000, 0.000000)">
                        <path d="M14.4642857,589 C12.3650169,589 10.7142857,590.53937 10.7142857,592.5 C10.7142857,594.46063 12.3636108,596 14.4642857,596 C16.5635546,596 18.2142857,594.46063 18.2142857,592.5 C18.2142857,590.53937 16.5649606,589 14.4642857,589 L14.4642857,589 Z M13.9285714,594 C12.7138393,594 11.7857143,593.13375 11.7857143,592 C11.7857143,590.86625 12.7138393,590 13.9285714,590 C15.1433036,590 16.0714286,590.86625 16.0714286,592 C16.0714286,593.13375 15.1433036,594 13.9285714,594 L13.9285714,594 Z" id="Shape"></path>
                        <path d="M21.6954115,603.667174 L21.6954115,591.400445 C21.6954115,587.666549 19.0199289,582.600102 14.4636077,580 C9.9072865,582.600102 7.23180385,587.666549 7.23180385,591.466698 L7.23180385,603.733427 L0,612 L28.9285714,612 L21.6967676,603.665924 L21.6954115,603.667174 Z M7.5,611 L3.21428571,611 L7.5,606 L7.5,611 L7.5,611 Z M20.3557618,611 L8.57142857,611 L8.57142857,591.843762 C8.57142857,588.8506 10.6333071,584.526728 14.4642857,582 C18.2938833,584.527975 20.3571429,588.784501 20.3571429,591.843762 L20.3571429,611 L20.3557618,611 Z M21.4285714,606 L25.7142857,611 L21.4285714,611 L21.4285714,606 L21.4285714,606 Z" id="Shape"></path>
                        <polygon id="Shape" points="13.9285714 613 15 613 15 620 13.9285714 620"></polygon>
                        <polygon id="Shape" points="17.1428571 613 18.2142857 613 18.2142857 617 17.1428571 617"></polygon>
                        <polygon id="Shape" points="10.7142857 613 11.7857143 613 11.7857143 617 10.7142857 617 10.7142857 613"></polygon>
                    </g>
                </g>
            </g>
        </g>
    </g>
</svg>