<?xml version="1.0" encoding="UTF-8"?>
<svg width="40px" height="38px" viewBox="0 0 40 38" version="1.1" xmlns="http://www.w3.org/2000/svg" xmlns:xlink="http://www.w3.org/1999/xlink">
    <!-- Generator: Sketch 52.6 (67491) - http://www.bohemiancoding.com/sketch -->
    <title>Smile</title>
    <desc>Created with Sketch.</desc>
    <g id="Page-1" stroke="none" stroke-width="1" fill="none" fill-rule="evenodd">
        <g id="Free-Sketch-Template" transform="translate(-543.000000, -2350.000000)" fill="#C71222">
            <g id="//-SERVICES" transform="translate(-98.000000, 1974.000000)">
                <g id="2" transform="translate(640.000000, 376.000000)">
                    <g id="Smile" transform="translate(1.000000, 0.000000)">
                        <path d="M20,-1.28924649e-14 C8.9171875,-1.28924649e-14 0,8.47132812 0,19 C0,29.5286719 8.9171875,38 20,38 C31.0828125,38 40,29.5286719 40,19 C40,8.47132812 31.0828125,-1.42108547e-14 20,-1.42108547e-14 L20,-1.28924649e-14 Z M20,36.4161719 C9.9171875,36.4161719 1.6671875,28.5786719 1.6671875,19 C1.6671875,9.42132812 9.9171875,1.58382812 20,1.58382812 C30.0828125,1.58382812 38.3328125,9.42132812 38.3328125,19 C38.3328125,28.5786719 30.0828125,36.4161719 20,36.4161719 L20,36.4161719 Z" id="Shape"></path>
                        <path d="M29.9492308,21.8 C29.5384615,21.66625 29.0461538,21.73375 28.8830769,22.06625 C27.0784615,24.9325 23.5492308,26.66625 19.6938462,26.66625 C15.7553846,26.66625 12.3092308,24.9325 10.5046154,22.06625 C10.34,21.7325 9.84769231,21.6 9.43846154,21.8 C9.02769231,21.93375 8.86461538,22.33375 9.02769231,22.66625 C11.0784615,25.9325 15.1,28 19.6938462,28 C24.2061538,28 28.3092308,25.93375 30.2784615,22.66625 C30.5246154,22.3325 30.36,21.9325 29.9507692,21.8 L29.9492308,21.8 Z" id="Shape"></path>
                        <path d="M15.5892308,14.66625 C15.5892308,15.77125 14.4876923,16.66625 13.1276923,16.66625 C11.7676923,16.66625 10.6661538,15.77125 10.6661538,14.66625 C10.6661538,13.56125 11.7676923,12.66625 13.1276923,12.66625 C14.4876923,12.66625 15.5892308,13.56125 15.5892308,14.66625 L15.5892308,14.66625 Z" id="Shape"></path>
                        <path d="M28.7184615,14.66625 C28.7184615,15.77125 27.6169231,16.66625 26.2569231,16.66625 C24.8969231,16.66625 23.7953846,15.77125 23.7953846,14.66625 C23.7953846,13.56125 24.8969231,12.66625 26.2569231,12.66625 C27.6169231,12.66625 28.7184615,13.56125 28.7184615,14.66625 L28.7184615,14.66625 Z" id="Shape"></path>
                    </g>
                </g>
            </g>
        </g>
    </g>
</svg>